<svg width="159" height="85" viewBox="0 0 159 85" fill="none" xmlns="http://www.w3.org/2000/svg">
<g clip-path="url(#clip0_93_14005)">
<path d="M22.3438 63.1709C22.1281 63.0633 21.9664 62.9019 21.8586 62.6868C21.7508 62.4716 21.6699 62.2564 21.6699 61.9874C21.6699 61.7454 21.7238 61.5033 21.8586 61.2881C21.9934 61.0729 22.1551 60.9384 22.3707 60.804C22.5863 60.6695 22.8289 60.6426 23.0715 60.6426C23.2871 60.6426 23.4758 60.6695 23.6645 60.7502C23.8532 60.8309 23.9879 60.9384 24.1227 61.0729L23.7993 61.3688C23.6106 61.1536 23.368 61.0729 23.0985 61.0729C22.9098 61.0729 22.7481 61.0998 22.6133 61.1805C22.4785 61.2612 22.3707 61.3688 22.2899 61.5033C22.209 61.6378 22.182 61.7992 22.182 61.9874C22.182 62.1757 22.209 62.3102 22.2899 62.4716C22.3707 62.6061 22.4785 62.7137 22.6133 62.7944C22.7481 62.875 22.9098 62.9019 23.0985 62.9019C23.368 62.9019 23.6106 62.7944 23.7993 62.6061L24.1227 62.9019C23.9879 63.0364 23.8532 63.144 23.6645 63.2247C23.4758 63.3054 23.2871 63.3323 23.0715 63.3323C22.802 63.3323 22.5594 63.2785 22.3438 63.1709Z" fill="#413B39"/>
<path d="M27.384 61.1271H26.5215V63.3058H26.0363V61.1271H25.1738V60.7236H27.384V61.1271Z" fill="#413B39"/>
<path d="M30.4289 60.8044C30.5907 60.8851 30.7254 60.9927 30.8063 61.1272C30.8872 61.2617 30.9411 61.423 30.9411 61.6113C30.9411 61.7996 30.8872 61.961 30.8063 62.0955C30.7254 62.23 30.5907 62.3375 30.4289 62.4182C30.2672 62.4989 30.0516 62.5258 29.836 62.5258H29.243V63.279H28.7578V60.6699H29.836C30.0516 60.6968 30.2403 60.7506 30.4289 60.8044ZM30.2942 62.0148C30.402 61.9341 30.4559 61.7996 30.4559 61.6382C30.4559 61.4768 30.402 61.3424 30.2942 61.2617C30.1864 61.181 30.0246 61.1272 29.809 61.1272H29.243V62.1493H29.809C30.0246 62.1493 30.1864 62.0955 30.2942 62.0148Z" fill="#413B39"/>
<path d="M32.8824 63.1708C32.6668 63.0632 32.5051 62.9019 32.3703 62.6867C32.2355 62.4715 32.1816 62.2563 32.1816 62.0143C32.1816 61.7722 32.2355 61.5301 32.3703 61.3418C32.5051 61.1266 32.6668 60.9653 32.8824 60.8577C33.0981 60.7501 33.3406 60.6963 33.6102 60.6963C33.8797 60.6963 34.1223 60.7501 34.3379 60.8577C34.5536 60.9653 34.7153 61.1266 34.8501 61.3418C34.9848 61.557 35.0387 61.7722 35.0387 62.0411C35.0387 62.2832 34.9848 62.5253 34.8501 62.7405C34.7153 62.9557 34.5536 63.0901 34.3379 63.2246C34.1223 63.3322 33.8797 63.386 33.6102 63.386C33.3406 63.386 33.0981 63.2784 32.8824 63.1708ZM34.0684 62.7943C34.2032 62.7136 34.311 62.606 34.3918 62.4715C34.4727 62.337 34.4997 62.1756 34.4997 62.0143C34.4997 61.8529 34.4727 61.6915 34.3918 61.557C34.311 61.4225 34.2032 61.3149 34.0684 61.2342C33.9336 61.1535 33.7719 61.1266 33.6102 61.1266C33.4485 61.1266 33.2867 61.1535 33.152 61.2342C33.0172 61.3149 32.9094 61.4225 32.8285 61.557C32.7477 61.6915 32.7207 61.8529 32.7207 62.0143C32.7207 62.1756 32.7477 62.337 32.8285 62.4715C32.9094 62.606 33.0172 62.7136 33.152 62.7943C33.2867 62.875 33.4485 62.9019 33.6102 62.9019C33.7719 62.9019 33.9336 62.875 34.0684 62.7943Z" fill="#413B39"/>
<path d="M36.5215 60.6963H37.0067V62.5522L38.4082 60.6963H38.8665V63.3053H38.3813V61.4763L36.9797 63.3053H36.5215V60.6963Z" fill="#413B39"/>
<path d="M42.425 61.1271H41.5625V63.3058H41.0774V61.1271H40.2148V60.7236H42.425V61.1271Z" fill="#413B39"/>
<path d="M45.7668 62.9019V63.3053H43.8262V60.6963H45.7399V61.0997H44.3113V61.7722H45.5782V62.1756H44.3113V62.9019H45.7668Z" fill="#413B39"/>
<path d="M49.4868 60.6963V63.3053H49.0016V61.1266H47.9774L47.9504 61.7722C47.9504 62.1487 47.8965 62.4177 47.8696 62.6598C47.8426 62.9019 47.7348 63.0632 47.6539 63.1708C47.5461 63.2784 47.4113 63.3591 47.2227 63.3591C47.1688 63.3591 47.0609 63.3591 46.9531 63.3322L46.9801 62.9019C47.007 62.9019 47.0609 62.9288 47.0879 62.9288C47.2496 62.9288 47.3574 62.8481 47.4113 62.6598C47.4652 62.4715 47.5192 62.2025 47.5192 61.7991L47.5461 60.7232H49.4868V60.6963Z" fill="#413B39"/>
<path d="M53.1243 61.7996C53.286 61.9341 53.3668 62.1493 53.3668 62.4182C53.3668 62.7141 53.286 62.9293 53.0973 63.0638C52.9086 63.2252 52.6661 63.279 52.3157 63.279H51.1836V60.6699H51.6688V61.5575H52.3965C52.693 61.5844 52.9356 61.6651 53.1243 61.7996ZM52.72 62.7948C52.8278 62.7141 52.8817 62.5796 52.8817 62.4182C52.8817 62.0955 52.693 61.9341 52.2887 61.9341H51.6688V62.9024H52.2887C52.4774 62.9293 52.6121 62.9024 52.72 62.7948Z" fill="#413B39"/>
<path d="M57.1422 60.6963V63.3053H56.6571V62.2025H55.3094V63.3053H54.8242V60.6963H55.3094V61.7722H56.6571V60.6963H57.1422Z" fill="#413B39"/>
<path d="M59.3238 63.1708C59.1082 63.0632 58.9465 62.9019 58.8117 62.6867C58.677 62.4715 58.623 62.2563 58.623 62.0143C58.623 61.7722 58.677 61.5301 58.8117 61.3418C58.9465 61.1266 59.1082 60.9653 59.3238 60.8577C59.5395 60.7501 59.7821 60.6963 60.0516 60.6963C60.3211 60.6963 60.5637 60.7501 60.7793 60.8577C60.995 60.9653 61.1567 61.1266 61.2915 61.3418C61.4262 61.557 61.4801 61.7722 61.4801 62.0411C61.4801 62.2832 61.4262 62.5253 61.2915 62.7405C61.1567 62.9557 60.995 63.0901 60.7793 63.2246C60.5637 63.3322 60.3211 63.386 60.0516 63.386C59.7821 63.386 59.5395 63.2784 59.3238 63.1708ZM60.5098 62.7943C60.6446 62.7136 60.7524 62.606 60.8333 62.4715C60.9141 62.337 60.9411 62.1756 60.9411 62.0143C60.9411 61.8529 60.9141 61.6915 60.8333 61.557C60.7524 61.4225 60.6446 61.3149 60.5098 61.2342C60.375 61.1535 60.2133 61.1266 60.0516 61.1266C59.8899 61.1266 59.7282 61.1535 59.5934 61.2342C59.4586 61.3149 59.3508 61.4225 59.2699 61.557C59.1891 61.6915 59.1621 61.8529 59.1621 62.0143C59.1621 62.1756 59.1891 62.337 59.2699 62.4715C59.3508 62.606 59.4586 62.7136 59.5934 62.7943C59.7282 62.875 59.8899 62.9019 60.0516 62.9019C60.2133 62.9019 60.375 62.875 60.5098 62.7943Z" fill="#413B39"/>
<path d="M62.8281 61.7988H63.8524V62.1754H62.8281V61.7988Z" fill="#413B39"/>
<path d="M67.734 60.6963V63.3053H67.2489V61.1266H65.9012V63.3053H65.416V60.6963H67.734Z" fill="#413B39"/>
<path d="M71.1028 60.8044C71.2645 60.8851 71.3993 60.9927 71.4801 61.1272C71.561 61.2617 71.6149 61.423 71.6149 61.6113C71.6149 61.7996 71.561 61.961 71.4801 62.0955C71.3993 62.23 71.2645 62.3375 71.1028 62.4182C70.941 62.4989 70.7254 62.5258 70.5098 62.5258H69.9168V63.279H69.4316V60.6699H70.5098C70.7524 60.6968 70.941 60.7506 71.1028 60.8044ZM70.968 62.0148C71.0758 61.9341 71.1297 61.7996 71.1297 61.6382C71.1297 61.4768 71.0758 61.3424 70.968 61.2617C70.8602 61.181 70.6985 61.1272 70.4828 61.1272H69.9168V62.1493H70.4828C70.6985 62.1493 70.8602 62.0955 70.968 62.0148Z" fill="#413B39"/>
<path d="M73.5836 63.1708C73.368 63.0632 73.2063 62.9019 73.0715 62.6867C72.9367 62.4715 72.8828 62.2563 72.8828 62.0143C72.8828 61.7722 72.9367 61.5301 73.0715 61.3418C73.2063 61.1266 73.368 60.9653 73.5836 60.8577C73.7992 60.7501 74.0418 60.6963 74.3114 60.6963C74.5809 60.6963 74.8235 60.7501 75.0391 60.8577C75.2547 60.9653 75.4165 61.1266 75.5512 61.3418C75.686 61.557 75.7399 61.7722 75.7399 62.0411C75.7399 62.2832 75.686 62.5253 75.5512 62.7405C75.4165 62.9557 75.2547 63.0901 75.0391 63.2246C74.8235 63.3322 74.5809 63.386 74.3114 63.386C74.0418 63.386 73.7723 63.2784 73.5836 63.1708ZM74.7696 62.7943C74.9043 62.7136 75.0122 62.606 75.093 62.4715C75.1739 62.337 75.2008 62.1756 75.2008 62.0143C75.2008 61.8529 75.1739 61.6915 75.093 61.557C75.0122 61.4225 74.9043 61.3149 74.7696 61.2342C74.6348 61.1535 74.4731 61.1266 74.3114 61.1266C74.1496 61.1266 73.9879 61.1535 73.8531 61.2342C73.7184 61.3149 73.6106 61.4225 73.5297 61.557C73.4488 61.6915 73.4219 61.8529 73.4219 62.0143C73.4219 62.1756 73.4488 62.337 73.5297 62.4715C73.6106 62.606 73.7184 62.7136 73.8531 62.7943C73.9879 62.875 74.1496 62.9019 74.3114 62.9019C74.4731 62.9019 74.6079 62.875 74.7696 62.7943Z" fill="#413B39"/>
<path d="M77.1953 60.6963H77.6805V62.5522L79.0821 60.6963H79.5403V63.3053H79.0551V61.4763L77.6535 63.3053H77.1953V60.6963Z" fill="#413B39"/>
<path d="M82.9633 62.1757C83.0442 62.2833 83.0981 62.4178 83.0981 62.5523C83.0981 62.7137 83.0442 62.8481 82.9364 62.9557C82.8286 63.0633 82.6938 63.1709 82.5321 63.2247C82.3703 63.2785 82.1817 63.3054 81.966 63.3054C81.8043 63.3054 81.6156 63.2785 81.4539 63.2247C81.2922 63.1709 81.1305 63.1171 80.9688 63.0095L81.1305 62.6599C81.2383 62.7406 81.3731 62.7944 81.5078 62.8481C81.6426 62.9019 81.7774 62.9019 81.9121 62.9019C82.1008 62.9019 82.2625 62.875 82.3973 62.7944C82.5321 62.7137 82.586 62.6061 82.586 62.4716C82.586 62.364 82.5321 62.2833 82.4512 62.2026C82.3703 62.1219 82.2356 62.1219 82.0739 62.1219H81.4809V61.7454H82.0469C82.1817 61.7454 82.3164 61.7185 82.3973 61.6647C82.4782 61.6109 82.5321 61.5302 82.5321 61.4226C82.5321 61.2881 82.4782 61.2074 82.3703 61.1536C82.2625 61.0998 82.1278 61.046 81.9391 61.046C81.8313 61.046 81.6965 61.0729 81.5887 61.0998C81.4809 61.1267 81.3461 61.1805 81.2383 61.2343L81.0766 60.8578C81.2113 60.7771 81.3461 60.7233 81.5078 60.6964C81.6695 60.6695 81.8043 60.6426 81.966 60.6426C82.1547 60.6426 82.3434 60.6695 82.5051 60.7233C82.6668 60.7771 82.8016 60.8578 82.8825 60.9653C82.9903 61.0729 83.0172 61.2074 83.0172 61.3419C83.0172 61.4764 82.9903 61.584 82.9094 61.6916C82.8286 61.7992 82.7477 61.853 82.6129 61.9067C82.7477 61.9874 82.8555 62.0681 82.9633 62.1757Z" fill="#413B39"/>
<path d="M86.6809 62.1756C86.7618 62.2832 86.8157 62.4177 86.8157 62.5791C86.8157 62.7943 86.7348 62.9826 86.5731 63.117C86.4114 63.2515 86.1688 63.3053 85.8453 63.3053H84.6055V60.6963H85.7645C86.061 60.6963 86.2766 60.7501 86.4383 60.8577C86.6 60.9653 86.6809 61.1266 86.6809 61.3418C86.6809 61.4763 86.654 61.5839 86.5731 61.6915C86.5192 61.7991 86.4114 61.8529 86.2766 61.9067C86.4653 61.9874 86.6 62.068 86.6809 62.1756ZM85.0906 61.826H85.7375C85.8993 61.826 86.0071 61.7991 86.0879 61.7453C86.1688 61.6915 86.2227 61.5839 86.2227 61.4763C86.2227 61.3418 86.1688 61.2611 86.0879 61.2073C86.0071 61.1535 85.8993 61.0997 85.7375 61.0997H85.0906V61.826ZM86.3305 62.5522C86.3305 62.3101 86.1688 62.1756 85.8184 62.1756H85.0637V62.9288H85.8184C86.1688 62.9288 86.3305 62.7943 86.3305 62.5522Z" fill="#413B39"/>
<path d="M88.8395 63.1708C88.6238 63.0632 88.4621 62.9019 88.3274 62.6867C88.1926 62.4715 88.1387 62.2563 88.1387 62.0143C88.1387 61.7722 88.1926 61.5301 88.3274 61.3418C88.4621 61.1266 88.6238 60.9653 88.8395 60.8577C89.0551 60.7501 89.2977 60.6963 89.5672 60.6963C89.8368 60.6963 90.0793 60.7501 90.295 60.8577C90.5106 60.9653 90.6723 61.1266 90.8071 61.3418C90.9419 61.557 90.9958 61.7722 90.9958 62.0411C90.9958 62.2832 90.9419 62.5253 90.8071 62.7405C90.6723 62.9557 90.5106 63.0901 90.295 63.2246C90.0793 63.3591 89.8368 63.386 89.5672 63.386C89.2977 63.386 89.0551 63.2784 88.8395 63.1708ZM90.0254 62.7943C90.1602 62.7136 90.268 62.606 90.3489 62.4715C90.4297 62.337 90.4567 62.1756 90.4567 62.0143C90.4567 61.8529 90.4297 61.6915 90.3489 61.557C90.268 61.4225 90.1602 61.3149 90.0254 61.2342C89.8907 61.1535 89.7289 61.1266 89.5672 61.1266C89.4055 61.1266 89.2438 61.1535 89.109 61.2342C88.9742 61.3149 88.8664 61.4225 88.7856 61.557C88.7047 61.6915 88.6777 61.8529 88.6777 62.0143C88.6777 62.1756 88.7047 62.337 88.7856 62.4715C88.8664 62.606 88.9742 62.7136 89.109 62.7943C89.2438 62.875 89.4055 62.9019 89.5672 62.9019C89.7289 62.9019 89.8637 62.875 90.0254 62.7943Z" fill="#413B39"/>
<path d="M94.9579 62.9023V63.8706H94.4997V63.3058H92.5051V63.8706H92.0469V62.9023H92.1547C92.3164 62.9023 92.4242 62.7678 92.5051 62.5526C92.559 62.3106 92.6129 61.9878 92.6129 61.5574L92.6399 60.7236H94.5536V62.9023H94.9579ZM92.9903 62.4182C92.9363 62.6333 92.8824 62.7947 92.8016 62.9023H94.1223V61.1271H93.0981L93.0711 61.5843C93.0442 61.9071 93.0172 62.203 92.9903 62.4182Z" fill="#413B39"/>
<path d="M96.8711 63.1709C96.6555 63.0633 96.4938 62.9019 96.3859 62.6868C96.2781 62.4716 96.1973 62.2564 96.1973 61.9874C96.1973 61.7454 96.2512 61.5033 96.3859 61.2881C96.5207 61.0729 96.6824 60.9384 96.8981 60.804C97.1137 60.6695 97.3563 60.6426 97.5989 60.6426C97.8145 60.6426 98.0032 60.6695 98.1918 60.7502C98.3805 60.8309 98.5153 60.9384 98.6501 61.0729L98.3266 61.3688C98.1379 61.1536 97.8954 61.0729 97.6258 61.0729C97.4371 61.0729 97.2754 61.0998 97.1406 61.1805C97.0059 61.2612 96.8981 61.3688 96.8172 61.5033C96.7363 61.6378 96.7094 61.7992 96.7094 61.9874C96.7094 62.1757 96.7363 62.3102 96.8172 62.4716C96.8981 62.6061 97.0059 62.7137 97.1406 62.7944C97.2754 62.875 97.4371 62.9019 97.6258 62.9019C97.8954 62.9019 98.1379 62.7944 98.3266 62.6061L98.6501 62.9019C98.5153 63.0364 98.3805 63.144 98.1918 63.2247C98.0032 63.3054 97.8145 63.3323 97.5989 63.3323C97.3024 63.3323 97.0867 63.2785 96.8711 63.1709Z" fill="#413B39"/>
<path d="M101.884 61.1271H101.022V63.3058H100.536V61.1271H99.6738V60.7236H101.884V61.1271Z" fill="#413B39"/>
<path d="M105.361 62.1756C105.441 62.2832 105.495 62.4177 105.495 62.5791C105.495 62.7943 105.414 62.9826 105.253 63.117C105.091 63.2515 104.848 63.3053 104.525 63.3053H103.285V60.6963H104.444C104.741 60.6963 104.956 60.7501 105.118 60.8577C105.28 60.9653 105.361 61.1266 105.361 61.3418C105.361 61.4763 105.334 61.5839 105.253 61.6915C105.199 61.7991 105.091 61.8529 104.956 61.9067C105.145 61.9874 105.28 62.068 105.361 62.1756ZM103.743 61.826H104.39C104.552 61.826 104.66 61.7991 104.741 61.7453C104.822 61.6915 104.875 61.5839 104.875 61.4763C104.875 61.3418 104.822 61.2611 104.741 61.2073C104.66 61.1535 104.552 61.0997 104.39 61.0997H103.743V61.826ZM105.01 62.5522C105.01 62.3101 104.848 62.1756 104.498 62.1756H103.743V62.9288H104.498C104.848 62.9288 105.01 62.7943 105.01 62.5522Z" fill="#413B39"/>
<path d="M108.973 62.9019V63.3053H107.006V60.6963H108.92V61.0997H107.491V61.7722H108.758V62.1756H107.491V62.9019H108.973Z" fill="#413B39"/>
<path d="M112.773 60.6963V63.3053H112.288V62.2025H110.94V63.3053H110.455V60.6963H110.94V61.7722H112.288V60.6963H112.773Z" fill="#413B39"/>
<path d="M116.789 60.6963V63.3053H116.304V62.2025H114.956V63.3053H114.471V60.6963H114.956V61.7722H116.304V60.6963H116.789Z" fill="#413B39"/>
<path d="M120.213 62.7136H118.919L118.649 63.3053H118.164L119.323 60.6963H119.808L120.994 63.3053H120.482L120.213 62.7136ZM120.051 62.337L119.566 61.2073L119.08 62.337H120.051Z" fill="#413B39"/>
<path d="M124.203 60.6963V63.3053H123.718V62.5791H123.071H123.017L122.532 63.3053H122.02L122.586 62.4984C122.397 62.4446 122.262 62.337 122.154 62.1756C122.046 62.0411 122.02 61.8529 122.02 61.6377C122.02 61.4494 122.073 61.2611 122.154 61.1266C122.235 60.9922 122.37 60.8846 122.532 60.8039C122.693 60.7232 122.882 60.6963 123.098 60.6963H124.203ZM122.693 61.2611C122.586 61.3418 122.532 61.4763 122.532 61.6646C122.532 61.826 122.586 61.9605 122.693 62.068C122.801 62.1756 122.936 62.2025 123.125 62.2025H123.745V61.1266H123.152C122.936 61.1266 122.801 61.1535 122.693 61.2611Z" fill="#413B39"/>
<path d="M128.865 62.2025H128.38V63.3053H127.895V60.6963H128.38V61.7722H128.865L129.62 60.6963H130.132L129.242 61.9605L130.159 63.3053H129.62L128.865 62.2025Z" fill="#413B39"/>
<path d="M131.937 63.1708C131.721 63.0632 131.56 62.9019 131.425 62.6867C131.29 62.4715 131.236 62.2563 131.236 62.0143C131.236 61.7722 131.29 61.5301 131.425 61.3418C131.56 61.1266 131.721 60.9653 131.937 60.8577C132.153 60.7501 132.395 60.6963 132.665 60.6963C132.934 60.6963 133.177 60.7501 133.393 60.8577C133.608 60.9653 133.77 61.1266 133.905 61.3418C134.04 61.557 134.093 61.7722 134.093 62.0411C134.093 62.2832 134.04 62.5253 133.905 62.7405C133.77 62.9557 133.608 63.0901 133.393 63.2246C133.177 63.3591 132.934 63.386 132.665 63.386C132.395 63.386 132.153 63.2784 131.937 63.1708ZM133.123 62.7943C133.258 62.7136 133.366 62.606 133.447 62.4715C133.527 62.337 133.554 62.1756 133.554 62.0143C133.554 61.8529 133.527 61.6915 133.447 61.557C133.366 61.4225 133.258 61.3149 133.123 61.2342C132.988 61.1535 132.827 61.1266 132.665 61.1266C132.503 61.1266 132.341 61.1535 132.207 61.2342C132.072 61.3149 131.964 61.4225 131.883 61.557C131.802 61.6915 131.775 61.8529 131.775 62.0143C131.775 62.1756 131.802 62.337 131.883 62.4715C131.964 62.606 132.072 62.7136 132.207 62.7943C132.341 62.875 132.503 62.9019 132.665 62.9019C132.827 62.9019 132.988 62.875 133.123 62.7943Z" fill="#413B39"/>
<path d="M137.948 63.3053V61.5839L137.086 63.0094H136.87L136.007 61.6108V63.3053H135.576V60.6963H135.98L137.005 62.4177L138.029 60.6963H138.433V63.3053H137.948Z" fill="#413B39"/>
<path d="M142.423 60.6963V63.3053H141.938V61.1266H140.591V63.3053H140.105V60.6963H142.423Z" fill="#413B39"/>
<path d="M145.845 62.7136H144.552L144.282 63.3053H143.797L144.956 60.6963H145.441L146.627 63.3053H146.115L145.845 62.7136ZM145.684 62.337L145.198 61.2073L144.713 62.337H145.684Z" fill="#413B39"/>
<path d="M150.293 60.6963V63.3053H149.807V62.2025H148.46V63.3053H147.975V60.6963H148.46V61.7722H149.807V60.6963H150.293Z" fill="#413B39"/>
<path d="M151.99 60.6963H152.475V62.5522L153.877 60.6963H154.335V63.3053H153.85V61.4763L152.448 63.3053H151.99V60.6963Z" fill="#413B39"/>
<path d="M158.002 60.6963V63.3053H157.516V62.5791H156.87H156.816L156.33 63.3053H155.818L156.384 62.4984C156.196 62.4446 156.061 62.337 155.953 62.1756C155.845 62.0411 155.818 61.8529 155.818 61.6377C155.818 61.4494 155.872 61.2611 155.953 61.1266C156.034 60.9922 156.169 60.8846 156.33 60.8039C156.492 60.7232 156.681 60.6963 156.897 60.6963H158.002ZM156.492 61.2611C156.384 61.3418 156.33 61.4763 156.33 61.6646C156.33 61.826 156.384 61.9605 156.492 62.068C156.6 62.1756 156.735 62.2025 156.923 62.2025H157.543V61.1266H156.95C156.735 61.1266 156.6 61.1535 156.492 61.2611Z" fill="#413B39"/>
<path d="M38.5156 34.5241C38.5156 34.4434 38.4617 34.3896 38.3808 34.3896H37.4105C37.3566 34.3896 37.3027 34.4165 37.3027 34.4703L29.7557 47.4617L22.2086 34.4703C22.1817 34.4165 22.1278 34.3896 22.1008 34.3896H21.1035C21.0227 34.3896 20.9688 34.4434 20.9688 34.5241V51.4963C20.9688 51.577 21.0227 51.6308 21.1035 51.6308H22.2625C22.3434 51.6308 22.3973 51.577 22.3973 51.4963V37.3752L29.3514 49.2907C29.3783 49.3445 29.4322 49.3714 29.4592 49.3714H30.0252C30.0791 49.3714 30.133 49.3445 30.133 49.2907L37.0871 37.3214L37.114 51.4963C37.114 51.577 37.1679 51.6308 37.2488 51.6308H38.4078C38.4887 51.6308 38.5426 51.577 38.5426 51.4963L38.5156 34.5241Z" fill="#413B39"/>
<path d="M56.4398 50.2866H54.7148V34.3903C54.7148 34.3097 54.6609 34.2559 54.58 34.2559H44.3376L44.3107 34.4979C43.1516 47.1934 42.6934 49.4528 40.9953 50.3135H39.5938V55.0743C39.5938 55.155 39.6477 55.2088 39.7285 55.2088H40.6989C40.7797 55.2088 40.8336 55.155 40.8336 55.0743V51.5777H55.3347V55.0743C55.3347 55.155 55.3886 55.2088 55.4695 55.2088H56.4398C56.5207 55.2088 56.5746 55.155 56.5746 55.0743V50.448C56.5746 50.3673 56.4937 50.2866 56.4398 50.2866ZM53.3941 35.52V50.2866H42.7743C44.122 48.7535 44.6341 45.2568 45.4966 35.52H53.3941Z" fill="#413B39"/>
<path d="M108.864 34.0137H96.8691C96.7883 34.0137 96.7344 34.0675 96.7344 34.1482V35.1165C96.7344 35.1971 96.7883 35.2509 96.8691 35.2509H102.206V51.2817H103.5V35.2509H108.837C108.917 35.2509 108.971 35.1971 108.971 35.1165V34.1482C108.998 34.0675 108.917 34.0137 108.864 34.0137Z" fill="#413B39"/>
<path d="M117.516 34.0137H111.748C111.667 34.0137 111.613 34.0675 111.613 34.1482V51.1741C111.613 51.2548 111.667 51.3086 111.748 51.3086H112.772C112.853 51.3086 112.907 51.2548 112.907 51.1741V44.6112H117.516C120.67 44.6112 123.042 42.3249 123.042 39.2855C123.042 36.2999 120.67 34.0137 117.516 34.0137ZM112.88 35.2778H117.462C119.888 35.2778 121.721 36.9993 121.721 39.2855C121.721 41.5987 119.888 43.3201 117.462 43.3201H112.88V35.2778Z" fill="#413B39"/>
<path d="M133.662 33.7715C131.155 33.7715 128.891 34.686 127.247 36.3267C125.63 37.9675 124.74 40.2268 124.74 42.6745C124.74 45.1221 125.63 47.3815 127.247 48.9953C128.891 50.636 131.155 51.5505 133.662 51.5505C138.837 51.5505 142.584 47.8118 142.584 42.6745C142.584 37.5102 138.837 33.7715 133.662 33.7715ZM141.29 42.6745C141.29 47.0856 138.082 50.2864 133.662 50.2864C129.242 50.2864 126.034 47.0856 126.034 42.6745C126.034 38.2633 129.242 35.0357 133.662 35.0357C138.082 35.0357 141.29 38.2633 141.29 42.6745Z" fill="#413B39"/>
<path d="M149.052 31.3779H155.736C155.844 31.3779 155.925 31.2972 155.925 31.1896V30.3289C155.925 30.2213 155.844 30.1406 155.736 30.1406H149.052C148.944 30.1406 148.863 30.2213 148.863 30.3289V31.1896C148.863 31.2972 148.944 31.3779 149.052 31.3779Z" fill="#413B39"/>
<path d="M158.863 34.0137H158.135C158.082 34.0137 158.055 34.0406 158.028 34.0675L147.327 48.6727V34.1482C147.327 34.0675 147.273 34.0137 147.192 34.0137H146.168C146.087 34.0137 146.033 34.0675 146.033 34.1482V51.1741C146.033 51.2548 146.087 51.3086 146.168 51.3086H146.896C146.95 51.3086 146.977 51.2817 147.004 51.2548L157.731 36.6227V51.1741C157.731 51.2548 157.785 51.3086 157.866 51.3086H158.89C158.971 51.3086 159.025 51.2548 159.025 51.1741V34.1482C158.998 34.0675 158.944 34.0137 158.863 34.0137Z" fill="#413B39"/>
<path d="M79.5121 28.0692C84.9567 28.0692 89.3502 30.6782 91.5604 35.2507C91.5604 35.2776 91.5873 35.2776 91.6143 35.2776H93.0698C93.0967 35.2776 93.1237 35.2776 93.1237 35.2507C93.1237 35.2238 93.1506 35.197 93.1237 35.197C91.9916 32.561 90.1588 30.4092 87.8138 28.903C85.4419 27.3968 82.5848 26.5898 79.5121 26.5898C75.1456 26.5898 71.1834 28.1499 68.3802 31.001C65.577 33.8521 64.0137 37.8329 64.0137 42.2171C64.0137 46.6014 65.55 50.5822 68.3532 53.4064C71.1564 56.2306 75.1186 57.7906 79.5121 57.7906C82.5578 57.7906 85.388 57.0106 87.7329 55.5044C90.051 54.025 91.8838 51.8732 93.0698 49.2373C93.0698 49.2104 93.0698 49.1835 93.0698 49.1835C93.0698 49.1566 93.0428 49.1566 93.0159 49.1566H91.6951C91.6682 49.1566 91.6412 49.1835 91.6412 49.1835C89.3232 53.6484 84.795 56.3382 79.5121 56.3382C75.9003 56.3382 72.7736 55.2354 70.4017 53.2719C69.7818 52.7608 69.2157 52.196 68.7036 51.6043C66.6821 49.1835 65.5231 45.9558 65.5231 42.2171C65.5231 34.0135 71.399 28.0692 79.5121 28.0692Z" fill="#413B39"/>
<path opacity="0.8" d="M88.1117 40.7646H71.2926C71.2656 40.7646 71.2656 40.7915 71.2656 40.7915V44.4765C71.2656 44.5034 71.2926 44.5034 71.2926 44.5034H88.1117C88.1387 44.5034 88.1387 44.4765 88.1387 44.4765V40.7915C88.1387 40.7647 88.1117 40.7646 88.1117 40.7646Z" fill="#DE3246"/>
<path opacity="0.8" d="M71.1039 66.6403C64.4733 75.6239 54.15 80.7344 41.6704 80.7344C19.6223 80.7344 3.88134 64.9188 3.88134 42.5672C3.88134 20.2157 19.7301 4.26561 41.6974 4.26561C55.5247 4.26561 66.6835 10.3444 72.9098 20.9688C72.9098 20.9688 72.9368 20.9688 72.9368 20.9957H76.8451C76.872 20.9957 76.899 20.9688 76.872 20.9419C70.3223 8.08502 57.681 0.5 41.6974 0.5C17.3851 0.5 0 18.1984 0 42.5941C0 66.9899 17.3043 84.5 41.6974 84.5C56.4141 84.5 68.4894 77.9371 75.5782 66.694C75.6052 66.6672 75.5782 66.6403 75.5513 66.6403H71.1039Z" fill="#DE3246"/>
</g>
<defs>
<clipPath id="clip0_93_14005">
<rect width="159" height="84" fill="white" transform="translate(0 0.5)"/>
</clipPath>
</defs>
</svg>
